<?xml version="1.0" encoding="utf-8"?>
<!-- Generator: Adobe Illustrator 18.1.1, SVG Export Plug-In . SVG Version: 6.00 Build 0)  -->
<svg version="1.1" id="Layer_1" xmlns="http://www.w3.org/2000/svg" xmlns:xlink="http://www.w3.org/1999/xlink" x="0px" y="0px"
	 viewBox="0 0 61.6 58.4" enable-background="new 0 0 61.6 58.4" xml:space="preserve">
<g>
	<polygon points="26.8,0.6 26.8,0.6 26.8,0.6 	"/>
	<path d="M47.2,12.7C45.7,5.3,37.4,0,26.8,0c-2.1,0-4.2,0.2-6.2,0.6c-6.2,1.2-11.8,4-15.6,8c-3.9,4-5.5,8.7-4.7,13.2
		c0.5,2.6,1.8,5,3.9,7c-1.6,5.2-1,12-1,12.3l0.1,1.5l0.9-1.2c0,0,3.4-4.5,7.2-8.3c0.6,0.2,1.4,0.4,1.4,0.4l0.7,0.2l0.2-2.5l-3-1.5
		l-1.1,1.1c-1.1,1.1-2.3,2.4-3.6,3.8c0.2-2,0.5-3.8,1-5.2l0.5-1.4l-1.1-1c-1.8-1.6-2.9-3.5-3.3-5.7C2.4,17.7,3.8,13.9,7,10.6
		c3.4-3.5,8.4-6.1,14.1-7.2c1.9-0.4,3.8-0.6,5.7-0.6c9.1,0,16.3,4.3,17.5,10.3c0,0.3,0.1,0.8,0.2,1.8l0,0.4l0.4,0.1
		c0.6,0.1,1.1,0.2,1.7,0.4l0.7,0.2l0-0.7C47.4,14.4,47.3,13.5,47.2,12.7z"/>
	<path d="M38.2,16.2c-12.9,0-23.4,7.3-23.4,16.4c0,7.6,7.3,14,17.3,15.8c1.9,0.4,4,0.6,6.1,0.6c2,0,3.9-0.2,5.7-0.5
		c4.8,4.4,5.7,10,5.7,10s5.1-5.6,4.8-14.1c4.4-3,7.1-7.1,7.1-11.7C61.6,23.5,51.2,16.2,38.2,16.2z"/>
</g>
</svg>
