<?xml version="1.0" encoding="utf-8"?>
<!-- Generator: Adobe Illustrator 18.1.1, SVG Export Plug-In . SVG Version: 6.00 Build 0)  -->
<svg version="1.1" id="_x2014_ÎÓÈ_1" xmlns="http://www.w3.org/2000/svg" xmlns:xlink="http://www.w3.org/1999/xlink" x="0px"
	 y="0px" viewBox="0 0 119.8 119.8" enable-background="new 0 0 119.8 119.8" xml:space="preserve">
<path fill="#FFFFFF" d="M59.9,0C26.8,0,0,26.8,0,59.9c0,33.1,26.8,59.9,59.9,59.9c33.1,0,59.9-26.8,59.9-59.9
	C119.8,26.8,93,0,59.9,0z M86.1,21.2L57.9,57.5h17.6c0.3,0,0.6,0.2,0.7,0.5c0.1,0.3,0.1,0.6-0.1,0.9L39,103.6
	c-0.2,0.2-0.4,0.3-0.6,0.3c-0.2,0-0.3,0-0.4-0.1c-0.3-0.2-0.5-0.6-0.4-1l16-43.2H38.8c-0.3,0-0.5-0.1-0.7-0.4
	c-0.2-0.2-0.2-0.5,0-0.8l18.2-38c0.1-0.3,0.4-0.5,0.7-0.5h28.5c0.3,0,0.6,0.2,0.7,0.5C86.3,20.7,86.2,21,86.1,21.2z"/>
</svg>
