<?xml version="1.0" encoding="utf-8"?>
<!-- Generator: Adobe Illustrator 18.1.1, SVG Export Plug-In . SVG Version: 6.00 Build 0)  -->
<svg version="1.1" id="Ebene_1" xmlns="http://www.w3.org/2000/svg" xmlns:xlink="http://www.w3.org/1999/xlink" x="0px" y="0px"
	 viewBox="0 0 612 792" enable-background="new 0 0 612 792" xml:space="preserve">
<path d="M198,417.8c0.6,1.2,1.3,2.4,1.9,3.7c6.1,12.3,13.7,23.8,24.1,33.8l16.3,15.2c5.5,5.4,11.5,10,17.9,14.2l38.1-39.4
	c12-12.6,13.6-29,7-35.3c-0.9-0.7-1.5-1.6-2.2-2.5c0,0,0-0.1-0.1-0.1L284.5,392c-17.3-16.7-14.3-49.8,6.9-71.9l134-139.9
	c12.3-12.8,28.2-20.2,43.9-20.2c7.6,0,18.5,1.8,27.3,10.3l16.6,15.7c8.8,8.5,11.1,19.7,11.2,27.6c0.3,15.5-6.4,31.7-18.4,44.2
	l-80.4,84.1c18.7,32.1,25,70.1,18.7,107.3l125.1-130.7c28.1-29.3,43.6-68.1,42.7-106.8c-0.7-34.7-14.5-66.3-38.7-89.3L557,107
	c-49.8-48.3-142.1-42.9-195,12.7L228,259.4c-15.4,16-26.1,34.4-33.2,53.6c-0.4,1.3-0.9,2.8-1.3,4.3C182.4,351.2,183.8,387,198,417.8
	z"/>
<path d="M414.2,374c-0.6-1.2-1.3-2.4-1.9-3.7c-6.1-12.3-13.7-23.9-24.1-33.8l-16.3-15.2c-5.5-5.4-11.5-10-17.9-14.2l-38.1,39.4
	c-12,12.6-13.6,29-7,35.3c0.9,0.9,1.5,1.8,2.2,2.7c0,0,0,0.1,0.1,0.1l16.4,15.4c17.3,16.6,14.3,49.8-6.9,71.9l-134,139.7
	c-12.3,12.8-28.2,20.2-43.9,20.2c-7.6,0-18.5-1.8-27.3-10.3l-16.6-15.7c-9-8.5-11.1-19.7-11.2-27.6c-0.3-15.5,6.4-31.7,18.4-44.2
	l80.4-84c-18.7-32.1-25-70.1-18.7-107.3L42.7,473.4C14.6,502.7-0.9,541.7,0,580.2c0.7,34.7,14.6,66.3,38.7,89.3L55.1,685
	c49.9,48.3,142.1,42.9,195.1-12.6l134-139.7c15.4-16.1,26.1-34.5,33.2-53.8c0.4-1.5,0.9-2.8,1.3-4.3
	C429.9,440.8,428.5,405,414.2,374z"/>
</svg>
