<?xml version="1.0" encoding="utf-8"?>
<!-- Generator: Adobe Illustrator 18.1.1, SVG Export Plug-In . SVG Version: 6.00 Build 0)  -->
<svg version="1.1" id="_x31_" xmlns="http://www.w3.org/2000/svg" xmlns:xlink="http://www.w3.org/1999/xlink" x="0px" y="0px"
	 viewBox="0 0 119.8 119.8" enable-background="new 0 0 119.8 119.8" xml:space="preserve">
<g>
	<polygon fill="#FFFFFF" points="62.6,53.5 56.9,45.9 55.1,64.3 62.7,54.2 	"/>
	<polygon fill="#FFFFFF" points="53,85.3 64.5,85.3 54.6,68.7 	"/>
	<polygon fill="#FFFFFF" points="63.8,65.6 62.8,55.8 55.4,65.6 	"/>
	<polygon fill="#FFFFFF" points="61.8,45.6 58.9,44.7 57.4,44.7 62.4,51.4 	"/>
	<rect x="77.5" y="54.5" fill="#FFFFFF" width="2.7" height="30.8"/>
	<polygon fill="#FFFFFF" points="54.8,66.9 54.8,66.9 65.7,85.2 63.9,66.9 	"/>
	<polygon fill="#FFFFFF" points="69.8,85.3 76.4,85.3 76.4,54.5 76.4,51.9 76.4,50.3 63.9,46.3 	"/>
	<path fill="#FFFFFF" d="M59.9,0C26.8,0,0,26.8,0,59.9c0,33.1,26.8,59.9,59.9,59.9c33.1,0,59.9-26.8,59.9-59.9
		C119.8,26.8,93,0,59.9,0z M87.1,95.8H41V85.3H49l6.2-41.8l-11.4-3.6l-9.5,14.8l-1.5-0.3c-0.8-28.9,13-30.5,13-30.5L48,25l-2.6,10.7
		L81,47.1h0.2v4.7v2.8v30.8h5.9V95.8z"/>
</g>
</svg>
