<?xml version="1.0" encoding="utf-8"?>
<!-- Generator: Adobe Illustrator 18.1.1, SVG Export Plug-In . SVG Version: 6.00 Build 0)  -->
<svg version="1.1" id="_x31_" xmlns="http://www.w3.org/2000/svg" xmlns:xlink="http://www.w3.org/1999/xlink" x="0px" y="0px"
	 viewBox="0 0 119.8 119.8" enable-background="new 0 0 119.8 119.8" xml:space="preserve">
<g>
	<polygon fill="#FFFFFF" points="45.9,75.7 58.9,75.7 58.9,67.9 46,75.1 	"/>
	<polygon fill="#FFFFFF" points="76.3,91 74.4,79.1 62.1,84.6 	"/>
	<polygon fill="#FFFFFF" points="48.8,57.6 58.9,57.6 58.9,49.6 48.8,57.3 	"/>
	<polygon fill="#FFFFFF" points="51.6,39.7 58.9,39.7 58.9,29.3 53.3,29.3 	"/>
	<polygon fill="#FFFFFF" points="48.5,59.1 58.9,64.9 58.9,58.8 48.6,58.8 	"/>
	<polygon fill="#FFFFFF" points="48.3,60.7 46.3,73.3 58.6,66.4 	"/>
	<polygon fill="#FFFFFF" points="51.2,42.3 49.1,55.4 58.9,48 	"/>
	<polygon fill="#FFFFFF" points="45.6,77.3 58.9,83.2 58.9,77 45.7,77 	"/>
	<polygon fill="#FFFFFF" points="43,93.9 58.9,93.9 58.9,86 43.1,93.1 	"/>
	<polygon fill="#FFFFFF" points="45.4,78.9 43.4,91.3 58.2,84.6 	"/>
	<polygon fill="#FFFFFF" points="58.9,46.5 58.9,41 51.6,41 	"/>
	<polygon fill="#FFFFFF" points="74.1,77 60.9,77 60.9,83.4 74.2,77.5 	"/>
	<polygon fill="#FFFFFF" points="71.2,58.8 60.9,58.8 60.9,65.1 71.3,59.3 	"/>
	<polygon fill="#FFFFFF" points="73.8,74.9 60.9,67.7 60.9,75.7 73.9,75.7 	"/>
	<polygon fill="#FFFFFF" points="60.9,85.8 60.9,93.9 76.8,93.9 76.6,92.9 	"/>
	<path fill="#FFFFFF" d="M59.9,0C26.8,0,0,26.8,0,59.9c0,33.1,26.8,59.9,59.9,59.9c33.1,0,59.9-26.8,59.9-59.9
		C119.8,26.8,93,0,59.9,0z M78.5,104.5L77,95.2H60.9v9.3h-2v-9.3H42.8l-1.5,9.3h-5.8l13.6-76.3c-0.5-0.6-0.8-1.3-0.8-2.1v-2.8
		c0-1.8,1.3-3.2,3-3.2h17.1c1.6,0,3,1.4,3,3.2V26c0,0.9-0.3,1.7-0.8,2.2l11.7,65.4l0.1,0l-0.1,0.1l1.9,10.7H78.5z"/>
	<polygon fill="#FFFFFF" points="73.5,73.1 71.5,60.8 61.6,66.4 	"/>
	<polygon fill="#FFFFFF" points="70.6,55.3 68.6,42.3 61,48 	"/>
	<polygon fill="#FFFFFF" points="66.5,29.3 60.9,29.3 60.9,39.7 68.2,39.7 	"/>
	<polygon fill="#FFFFFF" points="70.9,57.1 60.9,49.6 60.9,57.6 71,57.6 	"/>
	<polygon fill="#FFFFFF" points="60.9,41 60.9,46.5 68.3,41 	"/>
</g>
</svg>
