<?xml version="1.0" encoding="utf-8"?>
<!-- Generator: Adobe Illustrator 18.1.1, SVG Export Plug-In . SVG Version: 6.00 Build 0)  -->
<svg version="1.1" id="_x2014_ÎÓÈ_1" xmlns="http://www.w3.org/2000/svg" xmlns:xlink="http://www.w3.org/1999/xlink" x="0px"
	 y="0px" viewBox="0 0 119.8 119.8" enable-background="new 0 0 119.8 119.8" xml:space="preserve">
<g>
	<path fill="#FFFFFF" d="M59.9,0C26.8,0,0,26.8,0,59.9c0,33.1,26.8,59.9,59.9,59.9c33.1,0,59.9-26.8,59.9-59.9
		C119.8,26.8,93,0,59.9,0z M79.9,47.3l0.9-4.2c0.1-0.6,0.4-1.2,0.7-1.7c0.4-0.5,1-0.9,1.7-0.9h1.2l-0.6-4.8l1.1-0.5l-0.4-2
		c-0.2-1.3-0.2-1.7-1.1-2.7l-2.6-2.7l1.7-1.6l2.6,2.8c1.2,1.2,1.4,2.2,1.7,3.7l0.3,1.5l1.4-0.6l1.1,5.9v10.7c-2.4,0-4.9,0-7.3,0
		C80.8,50.3,79.6,48.8,79.9,47.3z M35.5,26.2c0-1.5,1.1-3,2.7-3h35.2c1.6,0,2.7,1.5,2.7,3v17.4c0,1.5-1.1,3-2.7,3H38.2
		c-1.6,0-2.7-1.5-2.7-3V26.2z M91.1,93.4c-2,2.4-5.2,3.3-8,1.5c-2.3-1.5-4.1-4.8-4.4-10.1c-0.2-3.1-0.2-6.9-0.2-10.6
		c0-5.9,0.2-11.7,0-14.6c-0.1-1.9-1-2-1.9-2h-0.6v33.8h2.3v5.2H33.2v-5.2h2.3V51.8c0-1.7,1.4-3,3-3h34.6c1.7,0,3,1.4,3,3v1.4h2
		c6.6-0.1,4.4,10.4,4.8,20.9c0,3.6,0,7.3,0.2,10.4c0.2,3.7,1.2,5.8,2.4,6.6c0.9,0.6,1.7,0.1,2.2-0.6c3.5-4.1,0.8-13-0.7-17.8
		c-1.2-3.9-2.2-7.1-2.2-13.2l0-7.6h4.4l0,7.6c0,5.5,0.9,8.4,2,11.9C93.3,77.9,95.9,87.6,91.1,93.4z"/>
	<polygon fill="#FFFFFF" points="71.4,41.5 71.4,28.3 40.2,28.3 40.2,41.5 	"/>
	<path fill="#FFFFFF" d="M82.3,48h2.1v-5.1h-1.1c-0.1,0.2-0.2,0.4-0.3,0.7l-0.9,4.2C82.2,47.8,82.3,47.9,82.3,48z"/>
</g>
</svg>
