<?xml version="1.0" encoding="utf-8"?>
<!-- Generator: Adobe Illustrator 18.1.1, SVG Export Plug-In . SVG Version: 6.00 Build 0)  -->
<svg version="1.1" id="_x2014_ÎÓÈ_1" xmlns="http://www.w3.org/2000/svg" xmlns:xlink="http://www.w3.org/1999/xlink" x="0px"
	 y="0px" viewBox="0 0 119.8 119.8" enable-background="new 0 0 119.8 119.8" xml:space="preserve">
<g>
	<path fill="#FFFFFF" d="M86.7,90.3L69.6,60.5c-0.4-0.7-0.7-1.3-1.1-2c-0.5-0.9-1-1.8-1.5-2.7l-0.3-0.5v-0.6V27.5v-1.9h1.9h1.5
		c0.1,0,0.2,0,0.3,0v-1.6c-0.1,0-0.2,0-0.3,0H49.8c-0.1,0-0.2,0-0.3,0v1.6c0.1,0,0.2,0,0.3,0h1.4h1.9v1.9v26.7v0.6l-0.4,0.5
		c-0.7,0.9-1.3,2.2-2,3.4c-0.3,0.6-0.6,1.1-1,1.8L33.1,90.3v0c-0.2,0.3-0.2,0.6-0.2,0.9c0,0.6,0.3,1.1,0.7,1.7
		c0.6,0.7,1.3,1.3,2.2,1.8h0c1.3,0.7,2.7,1.2,4,1.2h40c1.3,0,2.8-0.5,4.1-1.2c0.9-0.5,1.6-1.1,2.2-1.8c0.4-0.6,0.7-1.1,0.7-1.7
		C86.9,90.9,86.8,90.6,86.7,90.3L86.7,90.3z M79.9,91h-40c-0.3,0-0.9-0.2-1.4-0.4l12.8-22.9h16.8l13.2,22.9
		C80.8,90.9,80.3,91,79.9,91z"/>
	<path fill="#FFFFFF" d="M59.9,0C26.8,0,0,26.8,0,59.9c0,33.1,26.8,59.9,59.9,59.9c33.1,0,59.9-26.8,59.9-59.9
		C119.8,26.8,93,0,59.9,0z M89.3,95.3c-0.8,1.1-2,2-3.3,2.8c-1.9,1.1-4.1,1.7-6.1,1.7h-40c-2,0-4.1-0.6-5.9-1.7l0,0
		c-1.3-0.7-2.5-1.7-3.4-2.8c-1-1.2-1.6-2.6-1.6-4.1c0-0.9,0.2-1.9,0.7-2.8l0,0l16.7-29.8c0.3-0.5,0.6-1.1,0.9-1.7
		c0.6-1.2,1.2-2.3,1.9-3.3V29.4c-0.8-0.1-1.5-0.3-2.1-0.7c-0.9-0.6-1.5-1.5-1.5-2.6v-2.7c0-1.1,0.6-2,1.5-2.6
		c0.7-0.5,1.6-0.7,2.6-0.7h20.4c1,0,1.9,0.3,2.6,0.7c0.9,0.6,1.5,1.5,1.5,2.6v2.7c0,1.1-0.6,2-1.5,2.6c-0.6,0.4-1.4,0.7-2.2,0.7
		v24.9c0.5,0.8,0.9,1.6,1.3,2.4c0.3,0.6,0.7,1.3,1,1.9L90,88.4h0c0.5,0.9,0.8,1.9,0.8,2.8C90.8,92.7,90.2,94,89.3,95.3z"/>
</g>
</svg>
