<?xml version="1.0" encoding="utf-8"?>
<!-- Svg Vector Icons : http://www.onlinewebfonts.com/icon -->
<!DOCTYPE svg PUBLIC "-//W3C//DTD SVG 1.1//EN" "http://www.w3.org/Graphics/SVG/1.1/DTD/svg11.dtd">
<svg version="1.1" xmlns="http://www.w3.org/2000/svg" xmlns:xlink="http://www.w3.org/1999/xlink" x="0px" y="0px" viewBox="0 0 1000 1000" enable-background="new 0 0 1000 1000" xml:space="preserve">
<metadata> Svg Vector Icons : http://www.onlinewebfonts.com/icon </metadata>
<g><path fill="#FFFFFF" d="M648.6,57.1c17.8,0,36.3,6.3,55.1,18.9c19.3,12.9,38.1,31.9,54.5,55.1c16.4,23.3,30.3,50.3,39.7,78.1c9.6,28,14.7,56,14.7,81.4c0,50.2-21.1,111.8-55.1,161c-33,47.7-72.9,76.2-106.6,76.2c-12.5,0-24.3-3.7-36.2-11.5c-1.4-0.8-2.5-1.6-3.3-2.2c0-5.6,0.7-15.2,1.4-24.4c1.5-22.2,3.8-55.6,3.8-105.9c0-54.5-15.9-106.5-30-152.2c-12.1-39.5-23.4-76.6-21.4-105c1.4-18.1,7.9-39.3,46.3-59.6C624,60.2,636,57.1,648.6,57.1L648.6,57.1 M648.6,17.6c-18.2,0-36.9,4.4-55.4,14.1c-142.2,74.7-16,208.8-16,351.8c0,142.9-19.2,142.8,16,165.7c18.9,12.3,38.4,17.8,57.7,17.8c102.6,0,201-156.3,201-276.5C852.1,168.4,755.6,17.6,648.6,17.6L648.6,17.6L648.6,17.6z"/><path fill="#FFFFFF" d="M322.4,438.6c59.5,0,110,15.9,135.2,42.5c13,13.7,18.8,30,17.8,49.9c-0.1,1.6-0.1,2.9-0.3,4c-4.9,2.7-13.4,7-21.8,11.1c-20,9.7-50.2,24.4-93.7,49.6c-47.1,27.3-84.3,67-116.9,102.1c-38.8,41.7-72.4,77.7-107,77.7c-14.3,0-29.9-5.5-48-17c-13.6-8.5-23.2-19.2-29.5-32.5c-6.2-12.9-9-28.2-8.8-45.5c0.7-35.4,14.8-76.6,39.6-115.8c24.9-39.6,57.7-72.4,92.1-92.1C218.4,450.9,269.9,438.6,322.4,438.6L322.4,438.6 M322.4,399.3c-57.3,0-116.5,13.4-161,39.2C37.6,509.8-54.2,715.5,66.7,791.8c25.6,16.2,48.2,23,69.1,23c89.3,0,143.2-127,243.6-185.1c123.7-71.4,133.3-54.8,135.5-96.7C519.7,441.7,424.2,399.3,322.4,399.3L322.4,399.3L322.4,399.3z"/><path fill="#FFFFFF" d="M563.3,628.2c4.9,2.9,12.7,8.2,20.6,13.4c18.4,12.5,46.2,31.2,89.9,56.3c47.1,27.3,100.2,39.5,146.9,50.2c40.1,9.2,78.1,18,101.7,34c15.1,10.3,30.1,26.6,28.5,69.9c-1.2,29.5-15.3,52.1-43.3,69.1c-28.4,17.3-68.5,26.9-113,26.9c-50.4,0-100.7-12.3-138-33.8c-34.9-20.1-69.7-55.9-95.6-98.1c-25.6-41.9-39.7-85.9-38.9-120.9c0.8-31.2,13.3-52.5,38-65.1C561.1,629.2,562.3,628.6,563.3,628.2 M563.8,587.5c-6.3,0-12.7,2.5-22.1,7.3c-127.3,64.8-29.1,282,94.7,353.4c44.5,25.8,102.1,39.2,157.7,39.2c98.9,0,192-42.5,195.7-133.9c6.4-160.5-172.9-118.3-296.7-189.8C600.5,610.3,582.7,587.5,563.8,587.5L563.8,587.5L563.8,587.5z"/><path fill="#FFFFFF" d="M114.9,356c-8.1,0-16.3-3-22.6-9c-13.2-12.5-13.7-33.3-1.2-46.5c8.4-8.8,14-22.5,17-40.7c3.8-23.8,1.2-45.1-7.5-60c-4.4-7.5-11.2-15.1-18.5-23c-5.3-5.9-10.8-11.9-16.2-18.8c-21.4-27.4-28.9-57-21.4-83.3C52.4,47,74.3,30.2,89,19.3c14.5-11,35.1-8.1,46,6.3c11,14.5,8.1,35.1-6.3,46c-7.7,5.8-19,14.5-21,21.1c-1.2,4.4,1.4,13.8,10,24.9c3.8,4.8,8.2,9.7,13,14.9c8.8,9.6,18.6,20.4,26.4,33.8c16.9,28.5,22.3,64.4,15.8,104c-5.2,31.5-16.7,56.9-34.3,75.4C132.3,352.5,123.5,356,114.9,356L114.9,356z"/><path fill="#FFFFFF" d="M258.6,356c-8.1,0-16.3-3-22.6-9c-13.2-12.5-13.7-33.3-1.2-46.5c8.4-8.8,14-22.5,17-40.7c3.8-23.8,1.2-45.1-7.5-60c-4.4-7.5-11.2-15.1-18.5-23c-5.3-5.9-10.8-11.9-16.2-18.8c-21.4-27.4-28.9-57-21.4-83.3c7.9-27.7,29.9-44.4,44.5-55.4c14.5-11,35.1-8.1,46,6.3c11,14.5,8.1,35.1-6.3,46c-7.7,5.8-19,14.5-21,21.1c-1.2,4.4,1.4,13.8,10,24.9c3.8,4.8,8.2,9.7,13,14.9c8.8,9.6,18.6,20.4,26.4,33.8c16.9,28.5,22.3,64.4,15.8,104c-5.2,31.5-16.7,56.9-34.3,75.4C275.9,352.5,267.3,356,258.6,356L258.6,356z"/><path fill="#FFFFFF" d="M395.3,356c-8.1,0-16.3-3-22.6-9c-13.2-12.5-13.7-33.3-1.2-46.5c8.4-8.8,14-22.5,17-40.7c3.8-23.8,1.2-45.1-7.5-60c-4.4-7.5-11.2-15.1-18.5-23c-5.3-5.9-10.8-11.9-16.2-18.8c-21.4-27.4-28.9-57-21.4-83.3c7.9-27.7,29.9-44.4,44.5-55.4c14.5-11,35.1-8.1,46,6.3c11,14.5,8.1,35.1-6.3,46c-7.7,5.8-19,14.5-21,21.1c-1.2,4.4,1.4,13.8,10,24.9c3.8,4.8,8.2,9.7,13,14.9c8.8,9.6,18.6,20.4,26.4,33.8c16.9,28.5,22.3,64.4,15.8,104c-5.2,31.5-16.7,56.9-34.3,75.4C412.7,352.5,404,356,395.3,356L395.3,356z"/></g>
</svg>
