<?xml version="1.0" encoding="utf-8"?>
<!-- Generator: Adobe Illustrator 18.1.1, SVG Export Plug-In . SVG Version: 6.00 Build 0)  -->
<svg version="1.1" id="_x31_" xmlns="http://www.w3.org/2000/svg" xmlns:xlink="http://www.w3.org/1999/xlink" x="0px" y="0px"
	 viewBox="0 0 119.8 119.8" enable-background="new 0 0 119.8 119.8" xml:space="preserve">
<g>
	<path fill="#FFFFFF" d="M42.3,78.9h-6.9c-0.6,0-1.1,0.5-1.1,1.1v6.2c0,0.6,0.5,1.1,1.1,1.1h6.9c0.6,0,1.1-0.5,1.1-1.1V80
		C43.4,79.4,42.9,78.9,42.3,78.9z"/>
	<path fill="#FFFFFF" d="M54.7,78.9h-6.9c-0.6,0-1.1,0.5-1.1,1.1v6.2c0,0.6,0.5,1.1,1.1,1.1h6.9c0.6,0,1.1-0.5,1.1-1.1V80
		C55.9,79.4,55.4,78.9,54.7,78.9z"/>
	<path fill="#FFFFFF" d="M59.9,0C26.8,0,0,26.8,0,59.9c0,33.1,26.8,59.9,59.9,59.9c33.1,0,59.9-26.8,59.9-59.9
		C119.8,26.8,93,0,59.9,0z M79.2,20.2c-2.6,6.1,0.4,10.1,3.6,14c3.1,4-2,7.4-2,7.4c2.9-6.4-4.1-8.1-4.7-13.1
		C75.4,23.6,79.2,20.2,79.2,20.2z M63.7,18c4.2-2.3,1.6-6.6,1.6-6.6c3.4,4.8,3.8,7.6,0.7,11.1c-3,3.5,1.2,7.5,3.8,11.2
		s-3.4,7.4-3.4,7.4c2.8-7.2-3.9-10.7-6.6-13.5C57.1,24.8,59.5,20.3,63.7,18z M86.8,99.2H30.4V78.4c0-1.4,1.1-2.6,2.4-2.6h25.9
		l3.7-32h4.6l0.7,6h-6l-0.3,2.5h6.6l2.7,23.5h2.4l2.7-23.5h6.6l-0.3-2.5h-6l0.7-6h4.6L85.3,76c0.9,0.4,1.5,1.3,1.5,2.4V99.2z"/>
</g>
</svg>
